<svg width="82" height="36" fill="none" xmlns="http://www.w3.org/2000/svg"><g fill="#F23207"><path d="M15.664.402h7.756v35.196h-5.272v-25.24l-3.853 25.24H9.023L4.867 10.709v24.889H0V.402h7.756l4.106 24.99L15.664.401zM39.136 35.598l-.964-6.386H31.33l-.963 6.386h-5.12L30.923.402h8.162l5.678 35.196h-5.627zm-1.724-11.162-2.687-17.8-2.686 17.8h5.373zM58.258 35.598a8.014 8.014 0 0 1-.405-1.61c-.068-.502-.102-1.407-.102-2.714v-5.531c0-1.609-.287-2.749-.861-3.419-.575-.704-1.504-1.056-2.788-1.056h-1.927v14.33H46.6V.402h8.415c2.873 0 4.968.67 6.286 2.011 1.318 1.308 1.977 3.336 1.977 6.084v2.766c0 3.62-1.217 6-3.65 7.14 1.318.536 2.264 1.44 2.839 2.714.574 1.24.862 2.833.862 4.777v5.43c0 1.006.033 1.827.101 2.464.068.603.237 1.206.507 1.81h-5.678zM52.175 16.24h2.18c1.115 0 1.943-.285 2.484-.854.575-.57.862-1.526.862-2.866V9.05c0-1.273-.237-2.195-.71-2.765-.44-.57-1.149-.855-2.13-.855h-2.686v10.81zM65.525 8.85c0-2.85.693-5.029 2.078-6.537C68.99.77 71.033 0 73.737 0s4.748.77 6.134 2.313C81.257 3.82 81.949 6 81.949 8.849v1.106h-5.272V8.497c0-1.207-.236-2.078-.71-2.614-.473-.57-1.165-.855-2.078-.855-.912 0-1.605.285-2.078.855-.473.536-.71 1.407-.71 2.614 0 1.475.389 2.766 1.166 3.872.811 1.106 2.01 2.363 3.6 3.77 1.317 1.207 2.382 2.28 3.193 3.219.81.905 1.504 2.01 2.078 3.318.575 1.307.862 2.799.862 4.475 0 2.849-.71 5.045-2.13 6.586C78.452 35.246 76.39 36 73.687 36c-2.703 0-4.765-.754-6.184-2.263-1.42-1.541-2.13-3.737-2.13-6.586v-2.162h5.273v2.514c0 2.28.963 3.419 2.89 3.419 1.926 0 2.889-1.14 2.889-3.42 0-1.474-.406-2.765-1.217-3.87-.777-1.107-1.96-2.364-3.548-3.772-1.318-1.206-2.383-2.262-3.194-3.167-.811-.939-1.504-2.062-2.078-3.369-.575-1.307-.862-2.799-.862-4.475z"/></g></svg>